<?xml version="1.0" encoding="UTF-8" standalone="no"?>
<!-- Created with Inkscape (http://www.inkscape.org/) -->

<svg
   width="490.85739mm"
   height="127.24607mm"
   viewBox="0 0 490.85739 127.24607"
   version="1.1"
   id="svg1"
   xml:space="preserve"
   xmlns="http://www.w3.org/2000/svg"
   xmlns:svg="http://www.w3.org/2000/svg"><defs
     id="defs1" /><g
     id="layer1"
     transform="translate(152.21225,-156.40626)"><path
       style="fill:white"
       d="m -45.659574,283.16675 c -2.017454,-0.92641 -2.748081,-2.41346 -2.766512,-5.63067 -0.03895,-6.7992 4.804541,-19.1998 14.55609,-37.26739 l 2.072799,-3.84047 0.825691,-5.41995 c 3.975378,-26.09493 11.735575,-49.01971 17.545593,-51.83229 1.952503,-0.9452 3.292563,-0.20698 3.016488,1.66174 -0.06742,0.45637 -0.920745,3.09196 -1.896271,5.85685 -2.164647,6.13517 -5.363305,16.66998 -7.68133,25.29852 -0.950456,3.53795 -1.795579,6.64524 -1.878051,6.90508 -0.119765,0.37735 1.01e-4,0.47226 0.595486,0.47152 0.701141,-8.7e-4 0.890055,-0.28778 3.179389,-4.82865 4.262346,-8.45431 7.604632,-13.54055 11.4501101,-17.42462 3.7669315,-3.80473 6.66565551,-5.32383 10.1930175,-5.34171 2.302361,-0.0117 3.688302,0.37129 5.326799,1.4719 3.3450164,2.2469 5.1242434,7.52095 5.1242434,15.18945 0,7.60327 -2.164633,16.1566 -5.9907704,23.67193 -4.429461,8.70039 -9.10095,13.03266 -14.8751715,13.795 -5.2931611,0.69884 -8.2844041,-1.72233 -9.0503101,-7.3255 -0.692486,-5.06604 1.281493,-12.91814 4.717254,-18.76429 1.6965431,-2.88677 5.2506951,-6.528 6.3718881,-6.528 0.5901835,0 0.8479095,0.15163 0.9834205,0.57859 0.14471,0.45594 -0.03379,0.78164 -0.8420655,1.53647 -3.787567,3.53713 -6.6134251,9.34748 -7.9145881,16.27348 -0.581973,3.0978 -0.441902,7.24581 0.29481,8.7304 1.404543,2.83038 4.2085001,2.69269 7.0510671,-0.34624 3.3671625,-3.59977 7.6311715,-12.65175 10.1188195,-21.48104 2.131079,-7.56373 2.722799,-17.15387 1.259316,-20.41001 -0.787984,-1.7532 -1.652317,-2.41127 -3.352223,-2.55224 -6.91237,-0.57323 -16.5455156,13.72327 -25.6341616,38.0435 -2.811865,7.52425 -3.525381,10.24214 -5.088286,19.38209 -0.790183,4.62104 -1.665615,9.44307 -1.945404,10.71563 -0.591913,2.69219 -2.649747,9.40997 -3.465445,11.31292 -0.82327,1.92061 -3.349642,5.56232 -4.657255,6.71332 -2.017776,1.77612 -5.441494,2.39628 -7.644437,1.38468 z m 4.283411,-3.7214 c 2.875247,-1.30538 4.934797,-6.93811 6.535331,-17.87369 0.962888,-6.57889 2.322469,-17.86273 2.194826,-18.21596 -0.144716,-0.40048 -4.733108,9.02845 -7.254987,14.90866 -2.223113,5.18359 -4.589151,12.05299 -5.213394,15.13625 -1.084792,5.35799 0.304109,7.60385 3.738224,6.04474 z m 165.071103,3.94445 c -3.01025,-0.47432 -6.14846,-2.38044 -7.7509,-4.70782 -1.36744,-1.98607 -1.12657,-2.95512 0.73452,-2.95512 0.62413,0 0.86409,0.19084 1.29021,1.02611 0.74102,1.45251 2.7539,3.13141 4.35456,3.63204 2.09652,0.65572 6.33349,0.78473 8.67363,0.2641 4.77381,-1.06208 8.46961,-3.79808 11.47343,-8.49381 1.6661,-2.60454 4.24141,-8.23944 5.50209,-12.03885 1.15988,-3.49562 2.6776,-9.22749 2.49236,-9.41273 -0.22513,-0.22514 -6.49406,0.45964 -8.85233,0.96696 -2.81683,0.60598 -6.69483,1.96267 -9.20751,3.2212 -4.0559,2.03147 -9.2911,6.40804 -12.01336,10.04303 -0.62244,0.83115 -1.34327,1.57832 -1.60183,1.66039 -0.67786,0.21514 -1.86293,-0.30493 -1.86293,-0.81755 0,-0.76579 2.55747,-3.92161 5.3855,-6.6455 2.8272,-2.72308 7.04516,-5.74888 10.29612,-7.38604 4.10219,-2.06583 10.53245,-3.68934 16.6367,-4.20043 l 2.02354,-0.16942 0.82183,-4.27944 c 0.452,-2.35369 1.24123,-6.89881 1.75384,-10.10027 0.51261,-3.20145 1.16696,-7.04726 1.45411,-8.54624 0.6769,-3.53343 0.67312,-3.81602 -0.0496,-3.70913 -0.41867,0.0619 -1.22772,1.16144 -3.02276,4.10801 -6.62671,10.87779 -12.25474,17.85921 -16.38161,20.32094 -1.15579,0.68944 -1.57598,0.78925 -3.326,0.79007 -2.59504,0.001 -4.64809,-0.9642 -6.08031,-2.85918 -1.88747,-2.4973 -2.658,-5.77072 -2.65876,-11.29509 -0.001,-9.28987 3.46015,-19.95683 9.31934,-28.71905 7.1785,-10.73524 18.47767,-15.31474 24.40974,-9.89316 1.80418,1.64891 2.73784,3.61148 2.22534,4.6777 -0.4205,0.87481 -1.78253,1.3381 -2.70212,0.91911 -0.34627,-0.15777 -0.9688,-0.91053 -1.38341,-1.67279 -1.11133,-2.04322 -2.38102,-2.95533 -4.30793,-3.09471 -5.99675,-0.43377 -11.53469,6.5558 -16.41015,20.71166 -2.50228,7.26533 -3.5284,12.92148 -3.55304,19.58478 -0.0195,5.26584 0.21285,6.4203 1.48139,7.3616 0.62914,0.46685 0.84347,0.49545 1.72755,0.23058 4.24952,-1.27319 13.07396,-14.12995 23.55271,-34.31509 3.83838,-7.39387 4.48981,-8.46623 6.0578,-9.97227 1.68737,-1.6207 3.92594,-2.06139 5.06775,-0.99764 0.79389,0.73963 0.73473,1.81307 -0.20223,3.66918 -1.3125,2.60004 -4.05466,11.9717 -5.81353,19.86843 -0.43757,1.96454 -1.6277,8.09625 -2.64473,13.62604 -1.01702,5.5298 -2.02401,10.8839 -2.23775,11.89801 -0.21374,1.01411 -0.33947,1.92335 -0.27942,2.02053 0.0601,0.0972 0.54292,0.25805 1.07301,0.3575 3.64792,0.68435 6.91878,2.89266 7.99706,5.39919 0.65418,1.5207 0.9763,3.82794 0.72296,5.17838 -0.20134,1.07321 -1.44311,2.62799 -2.56037,3.20574 -0.40773,0.21085 -0.77701,0.38317 -0.82062,0.38294 -0.0436,-2.4e-4 -0.10437,-1.01429 -0.13504,-2.25346 -0.0925,-3.73711 -1.69068,-6.25461 -4.97133,-7.83087 -2.21668,-1.06505 -2.39884,-1.02419 -2.79026,0.6259 -0.69279,2.92055 -3.00277,9.20519 -4.62353,12.57898 -4.96373,10.33254 -11.08508,16.01321 -19.00445,17.63631 -2.57921,0.52862 -7.19976,0.72792 -9.27932,0.40025 z m -254.4609,-24.33355 c -8.80485,-0.82706 -15.25368,-5.39504 -18.89415,-13.38354 -3.16386,-6.94262 -3.39292,-15.20937 -0.64893,-23.4198 2.81272,-8.41611 8.57515,-13.91303 16.07759,-15.33679 3.76552,-0.7146 5.95842,0.28334 6.79427,3.09192 0.15552,0.52259 0.0488,0.56797 -1.62589,0.69129 -2.1128,0.15557 -5.08328,1.13934 -7.1523,2.3687 -1.73803,1.0327 -5.70124,4.83561 -6.91703,6.63728 -1.86951,2.7704 -3.29575,6.29531 -4.16859,10.30259 -0.35468,1.62833 -0.47935,3.35621 -0.48293,6.69292 -0.004,3.98302 0.0661,4.72508 0.61453,6.48229 0.94121,3.01556 2.09247,4.96233 4.1715,7.05399 3.38549,3.40604 8.05401,5.14004 13.84312,5.14164 4.03096,0.001 6.87038,-0.66536 10.44347,-2.45133 1.72611,-0.86277 5.27004,-3.18132 6.74625,-4.4136 l 0.89869,-0.75019 -1.1388,-1.43036 c -1.47478,-1.85234 -2.76464,-4.65015 -3.48921,-7.56833 -0.78366,-3.1562 -0.83868,-9.56388 -0.1154,-13.44119 1.40196,-7.5156 5.9078,-17.04723 10.51616,-22.2458 8.432732,-9.51275 20.362855,-13.30424 31.588203,-10.03898 0.443028,0.12886 0.784205,-0.26731 2.095913,-2.43378 10.133208,-16.73637 19.889901,-27.56055 28.527263,-31.64846 3.12884,-1.48082 6.11491,-2.30406 8.993439,-2.47943 2.260944,-0.13774 2.653061,-0.0974 3.114668,0.32034 0.29045,0.26285 0.528091,0.67725 0.528091,0.92089 0,0.24364 -0.722865,2.10042 -1.606367,4.12618 -6.401429,14.67769 -10.949192,31.08831 -14.511976,52.36654 -2.111031,12.60783 -3.460823,25.18419 -3.460823,32.24537 0,1.52761 -0.11038,3.06779 -0.245288,3.42263 -0.34136,0.89784 -1.418354,1.11401 -2.613551,0.52458 -1.893664,-0.9339 -2.679936,-3.77399 -2.6949,-9.73425 -0.03517,-14.01145 -3.309517,-27.54304 -8.540744,-35.29559 -2.291166,-3.39545 -6.818128,-7.45511 -7.368672,-6.60803 -0.130131,0.20022 -1.562495,2.92388 -3.183031,6.05258 -12.721283,24.56042 -17.703585,32.55354 -25.529785,40.9575 -1.39582,1.49886 -2.47697,2.78609 -2.40256,2.8605 0.30343,0.30343 5.579902,0.0877 7.511302,-0.30716 5.551519,-1.13484 10.56817,-4.7884 14.361216,-10.45907 1.84246,-2.7545 2.939824,-4.97684 4.079056,-8.26075 0.719063,-2.07274 0.930871,-2.42615 1.583672,-2.64239 0.564634,-0.18704 0.849178,-0.15405 1.134811,0.13159 0.331906,0.3319 0.290341,0.66959 -0.321307,2.61039 -2.289119,7.26355 -7.335181,14.47706 -12.728881,18.19634 -1.481739,1.02175 -4.479353,2.39096 -6.478172,2.95901 -2.536755,0.72094 -7.460847,0.97921 -10.091127,0.52929 l -1.94805,-0.33323 -2.49064,1.71883 c -7.15598,4.93844 -14.74767,7.03081 -22.77411,6.27687 z m 25.19398,-16.46845 c 3.1279,-3.47184 7.068162,-8.59937 10.623452,-13.82448 2.688367,-3.95101 5.361448,-8.32206 14.03361,-22.94791 l 5.448815,-9.18958 -1.104027,-0.32461 c -0.643201,-0.18912 -2.705382,-0.32721 -4.940486,-0.33082 -3.123183,-0.005 -4.276226,0.10492 -6.201818,0.59148 -9.418814,2.37996 -18.168276,10.81375 -22.212306,21.4109 -2.61551,6.85382 -3.53284,15.91762 -2.13642,21.10929 0.68214,2.53609 2.86419,6.48229 3.58438,6.48229 0.12271,0 1.42987,-1.33945 2.9048,-2.97656 z m 51.939757,-28.77344 c 2.553898,-21.36524 8.632887,-42.568 14.998604,-52.31329 l 0.556427,-0.85184 -1.407943,0.41812 c -1.758855,0.52232 -5.169407,2.22458 -7.149506,3.56842 -5.285615,3.58722 -10.964643,10.28537 -16.906766,19.94074 -2.206597,3.5855 -5.800781,9.89924 -5.796061,10.18166 0.0013,0.0762 0.731174,0.60813 1.622003,1.18214 3.962319,2.55314 7.827326,7.47835 10.289156,13.11155 1.035934,2.37045 2.529316,6.68898 2.785704,8.05565 0.101088,0.53884 0.266145,0.88152 0.366793,0.76151 0.100648,-0.12001 0.389363,-1.9446 0.641589,-4.05466 z M 108.39778,258.2655 c -3.42337,-1.0308 -5.89349,-5.37419 -7.27803,-12.79753 -0.81033,-4.34465 -0.52905,-16.19735 0.55338,-23.31923 0.0221,-0.14552 -0.18896,-0.26458 -0.46907,-0.26458 -0.37418,0 -1.331954,1.31502 -3.610554,4.95733 -6.70079,10.71109 -11.71744,16.58993 -15.8112,18.52858 -1.43924,0.68158 -1.88773,0.77381 -3.18891,0.65582 -5.72988,-0.51956 -8.30307,-4.91615 -8.32248,-14.21986 -0.0122,-5.87141 0.81008,-10.05857 3.29958,-16.80104 4.93751,-13.37255 13.46646,-22.52162 22.32429,-23.9474 4.437244,-0.71423 8.142264,0.95889 9.895884,4.46881 0.58915,1.17919 0.69313,1.63199 0.50243,2.18788 -0.41721,1.21614 -2.56754,1.65091 -3.38772,0.68494 -0.15297,-0.18016 -0.54862,-0.85528 -0.87922,-1.50026 -0.37611,-0.73376 -1.09183,-1.51097 -1.91216,-2.07646 -1.221774,-0.84221 -1.428784,-0.89713 -3.039274,-0.80629 -5.18309,0.29233 -9.72797,5.56744 -13.98008,16.22628 -3.58382,8.98363 -5.32609,17.06844 -5.32609,24.71509 0,3.68765 0.36832,5.45956 1.33603,6.42727 0.84184,0.84185 1.51273,0.92222 2.67611,0.32061 2.61014,-1.34975 7.36615,-7.41452 12.53538,-15.98485 3.50837,-5.8167 8.346054,-14.37226 10.746014,-19.00459 3.75193,-7.24189 5.27517,-9.31967 7.51988,-10.25757 1.22405,-0.51144 2.5889,-0.47071 3.07774,0.0918 0.90353,1.03979 0.80485,1.7664 -0.73589,5.41855 -2.64703,6.27445 -5.55487,17.84768 -6.83199,27.19135 -1.15447,8.44633 -1.24609,18.72008 -0.19937,22.35636 0.96137,3.33978 2.91905,4.19958 4.99388,2.19328 0.49453,-0.47819 1.2668,-1.64334 1.71615,-2.58923 0.44936,-0.94588 0.94781,-1.80726 1.10768,-1.91417 0.47918,-0.32046 1.41504,-0.2276 1.56185,0.15496 0.23265,0.60629 -0.99062,3.78965 -2.02096,5.2592 -2.52142,3.59626 -4.14574,4.46015 -6.85328,3.6449 z m 147.481,-0.0723 c -2.23733,-0.71595 -4.35464,-3.59369 -5.69035,-7.73405 -1.45095,-4.49754 -1.6324,-6.04031 -1.61819,-13.75833 0.007,-3.92906 0.1557,-8.27484 0.32993,-9.65729 0.7237,-5.74225 0.71321,-5.29166 0.12324,-5.29166 -0.39388,0 -0.93316,0.67483 -2.06152,2.57968 -6.50166,10.97588 -13.02947,18.93964 -17.21267,20.99902 -1.54673,0.76146 -1.86024,0.82427 -3.39761,0.68071 -2.23356,-0.20858 -3.86514,-1.01111 -5.29988,-2.60689 -4.28432,-4.76519 -4.03697,-17.38306 0.56948,-29.05029 2.9535,-7.48063 5.91134,-12.25698 10.24705,-16.54703 4.22577,-4.18127 8.25024,-6.35358 12.72008,-6.86598 3.80961,-0.43672 7.50249,1.40341 8.94945,4.45943 0.82875,1.75035 0.87602,2.30527 0.24482,2.8741 -1.25448,1.13052 -3.00109,0.7524 -3.64396,-0.78889 -0.47819,-1.14646 -1.77922,-2.59284 -2.82519,-3.14082 -1.72912,-0.90586 -4.87381,-0.21153 -7.38252,1.63004 -1.50634,1.10575 -3.96306,4.05116 -5.33935,6.40146 -2.24748,3.83801 -5.29834,11.45564 -6.80029,16.97946 -2.23871,8.23351 -2.91827,18.20159 -1.45158,21.29242 2.14287,4.51576 8.11023,-1.73276 18.29887,-19.16101 3.95105,-6.7585 7.00528,-12.2704 8.96236,-16.17417 2.60244,-5.19106 4.43406,-7.63987 6.52112,-8.7185 2.0266,-1.04738 3.91314,-0.37732 3.91314,1.38988 0,0.46138 -0.64781,2.39615 -1.43959,4.29948 -2.73975,6.58604 -5.6375,18.4968 -6.89823,28.35409 -0.90706,7.09207 -0.91106,17.77281 -0.008,20.87987 0.56194,1.93299 1.02798,2.64145 2.00339,3.04548 1.67009,0.69177 3.2208,-0.44335 4.70323,-3.4428 0.90451,-1.83011 1.05038,-1.99103 1.87651,-2.07008 l 0.89576,-0.0857 -0.15019,1.11971 c -0.32874,2.45094 -3.3289,7.07146 -5.22988,8.0545 -0.85928,0.44435 -2.61429,0.46867 -3.90962,0.0542 z M 55.777726,253.93059 c -1.496148,-0.53467 -2.59679,-1.44569 -3.519899,-2.91351 -2.400883,-3.81759 -3.495604,-8.63479 -3.765795,-16.57095 -0.304289,-8.93772 0.82459,-19.33073 3.261227,-30.02447 1.67069,-7.33221 1.584407,-6.75804 1.071887,-7.1328 -0.87749,-0.64164 -1.848251,-0.12314 -4.160762,2.22233 -3.814805,3.86917 -7.492245,9.52577 -12.39488,19.06567 -4.364583,8.49292 -9.039647,19.72979 -9.8249,23.61489 -0.345204,1.70792 -0.881205,2.1899 -2.130252,1.91557 -1.04772,-0.23012 -2.00994,-1.44997 -2.569046,-3.25691 -0.39124,-1.26442 -0.460747,-2.47231 -0.436709,-7.58917 0.05398,-11.49102 1.524344,-22.3345 4.25144,-31.35313 2.183332,-7.22036 5.213213,-10.99405 8.0368,-10.00974 0.750349,0.26157 1.028779,0.75269 1.099819,1.93995 0.01741,0.29104 -0.461723,2.25558 -1.06475,4.36563 -1.494285,5.22865 -3.283737,12.75948 -4.243686,17.85937 -1.03156,5.48034 -1.975136,11.77752 -1.79217,11.96049 0.435084,0.43508 1.040246,-0.54531 2.670698,-4.32665 7.496062,-17.38485 15.049411,-27.72903 22.304066,-30.54502 2.124517,-0.82466 5.576183,-0.86592 7.073779,-0.0845 1.321804,0.68965 2.1692,1.91029 2.401483,3.45927 0.145603,0.97095 -0.02245,1.87117 -0.897785,4.80926 -1.931746,6.48395 -3.225904,12.24631 -4.674263,20.81262 -1.182882,6.99614 -1.529448,10.6637 -1.55011,16.40416 -0.03814,10.59546 1.782745,13.80395 6.081862,10.71656 1.31417,-0.94377 2.210688,-1.04611 2.210688,-0.25237 0,1.94923 -3.897231,5.32133 -6.085417,5.26543 -0.218281,-0.006 -0.827277,-0.16394 -1.353325,-0.35193 z m 275.272414,-0.0717 c -1.61871,-0.57326 -3.52555,-2.77601 -4.56543,-5.27391 -1.97494,-4.74402 -2.84101,-11.62702 -2.54404,-20.21851 0.34684,-10.03439 1.39727,-17.9134 3.46569,-25.99531 0.17159,-0.67046 0.12539,-0.72761 -0.58833,-0.72761 -0.6262,0 -1.20478,0.44343 -3.02072,2.31511 -4.79736,4.9446 -8.9097,11.37057 -15.02729,23.48176 -3.17535,6.28634 -4.60879,9.59467 -5.13794,11.8582 -0.38117,1.63049 -1.12365,2.21602 -2.3603,1.86135 -2.01429,-0.57769 -2.70428,-3.06647 -2.66667,-9.6185 0.0425,-7.39707 0.86531,-14.18567 3.01458,-24.87084 0.71713,-3.56526 1.46611,-7.15854 1.6644,-7.98507 0.19828,-0.82653 0.28849,-1.61932 0.20046,-1.76176 -0.67756,-1.09631 -4.10208,1.88546 -7.17017,6.24315 -4.66328,6.62338 -11.63729,20.42135 -15.67886,31.02035 -1.41807,3.71888 -2.94192,8.35857 -3.24007,9.86509 -0.34002,1.71809 -2.83496,1.35604 -3.80873,-0.55271 -0.78007,-1.52907 -1.08059,-3.89447 -1.08284,-8.52315 -0.008,-17.36367 3.73986,-35.53959 8.34427,-40.46207 1.84257,-1.96986 4.05712,-2.35139 4.86681,-0.83847 0.44538,0.8322 0.35197,1.42411 -0.89586,5.67725 -2.25508,7.68628 -4.22048,16.52522 -5.43251,24.4315 -0.65679,4.28441 -0.66501,4.64634 -0.10298,4.53498 0.28043,-0.0556 1.16334,-1.80091 2.51937,-4.98033 7.42433,-17.40743 14.16482,-27.35969 20.81728,-30.73647 1.43359,-0.72769 2.09736,-0.89772 3.80941,-0.97581 3.01713,-0.13761 4.34997,0.48949 5.2621,2.47582 0.71663,1.56059 0.62818,2.31968 -0.80695,6.92562 -2.45207,7.86971 -4.13676,14.71069 -5.54326,22.50927 -0.65314,3.62142 -0.68322,4.0349 -0.29353,4.0349 0.29647,0 1.11643,-1.36374 2.58511,-4.29948 4.13434,-8.26416 7.61049,-13.9619 11.41123,-18.70412 5.20037,-6.48854 8.92708,-9.04849 12.61803,-8.66755 0.79797,0.0824 1.82046,0.3662 2.2722,0.63076 2.42938,1.42275 2.52485,3.22404 0.56537,10.66747 -2.79542,10.61886 -4.05479,20.22182 -4.04238,30.82396 0.007,5.97705 0.34485,8.8219 1.26096,10.61762 0.62446,1.22405 1.03015,1.61148 1.76979,1.69015 1.17465,0.12495 1.69676,-0.0452 2.85649,-0.93069 3.13036,-2.3902 3.03936,0.23998 -0.11167,3.22774 -0.99313,0.94167 -2.54262,1.67804 -3.46393,1.64616 -0.3321,-0.0115 -1.10569,-0.19862 -1.71909,-0.41585 z m -151.61003,-9.80344 c -0.81493,-0.15742 -1.57208,-1.31428 -2.06489,-3.15497 -0.49481,-1.84815 -0.56201,-11.01352 -0.12183,-16.61538 1.13542,-14.44973 4.42993,-27.23354 7.96428,-30.90413 2.00694,-2.0843 4.4447,-2.22085 4.98087,-0.27899 0.21907,0.79341 0.0813,1.54438 -0.90556,4.93709 -2.40492,8.26757 -4.18044,16.27144 -5.54427,24.99308 -0.3718,2.37764 -0.676,4.37193 -0.676,4.43177 0,0.0598 0.182,0.1088 0.40444,0.1088 0.24414,0 0.68531,-0.65544 1.11307,-1.65365 1.24699,-2.90996 5.09522,-10.55096 6.89578,-13.69219 6.96749,-12.15535 14.91383,-21.24762 20.34597,-23.28005 2.87095,-1.07416 5.39136,-0.67554 5.79078,0.91586 0.1235,0.4921 -0.0588,0.92069 -0.75829,1.78259 -1.24236,1.53085 -2.0815,3.26649 -3.33048,6.88866 -1.43157,4.15171 -2.14416,7.63718 -2.38086,11.64534 -0.10968,1.85713 -0.31473,3.49193 -0.45569,3.63288 -0.16531,0.16532 -0.60756,0.15929 -1.24597,-0.017 -2.04946,-0.56588 -3.09662,-3.46664 -3.09342,-8.56919 0.002,-3.71499 0.31125,-5.90828 1.19398,-8.47722 l 0.63641,-1.85208 -2.31265,2.38125 c -4.85123,4.99513 -10.29136,13.50426 -16.58174,25.93616 -4.39871,8.69334 -6.93842,15.15279 -7.43777,18.91708 -0.12182,0.91833 -0.35005,1.45715 -0.7299,1.7232 -0.56127,0.39313 -0.64215,0.40278 -1.68626,0.20108 z"
       id="path1" /></g></svg>
